<svg xmlns="http://www.w3.org/2000/svg" viewBox="0 0 16 16" width="16" height="16">
	<style>
		tspan { white-space:pre }
		.shp0 { fill: #ff0b0b } 
		.shp1 { fill: #fe0202 } 
	</style>
	<path id="Layer" fill-rule="evenodd" class="shp0" d="M5.31 5.54C5.25 5.56 5.19 5.6 5.15 5.65C5.1 5.69 5.06 5.75 5.04 5.81C5.01 5.87 5 5.93 5 6L5 12C5 12.13 5.05 12.26 5.15 12.35C5.24 12.45 5.37 12.5 5.5 12.5C5.63 12.5 5.76 12.45 5.85 12.35C5.95 12.26 6 12.13 6 12L6 6C6 5.93 5.99 5.87 5.96 5.81C5.94 5.75 5.9 5.69 5.85 5.65C5.81 5.6 5.75 5.56 5.69 5.54C5.63 5.51 5.57 5.5 5.5 5.5C5.43 5.5 5.37 5.51 5.31 5.54ZM7.81 5.54C7.75 5.56 7.69 5.6 7.65 5.65C7.6 5.69 7.56 5.75 7.54 5.81C7.51 5.87 7.5 5.93 7.5 6L7.5 12C7.5 12.13 7.55 12.26 7.65 12.35C7.74 12.45 7.87 12.5 8 12.5C8.13 12.5 8.26 12.45 8.35 12.35C8.45 12.26 8.5 12.13 8.5 12L8.5 6C8.5 5.93 8.49 5.87 8.46 5.81C8.44 5.75 8.4 5.69 8.35 5.65C8.31 5.6 8.25 5.56 8.19 5.54C8.13 5.51 8.07 5.5 8 5.5C7.93 5.5 7.87 5.51 7.81 5.54ZM11 6C11 5.87 10.95 5.74 10.85 5.65C10.76 5.55 10.63 5.5 10.5 5.5C10.37 5.5 10.24 5.55 10.15 5.65C10.05 5.74 10 5.87 10 6L10 12C10 12.13 10.05 12.26 10.15 12.35C10.24 12.45 10.37 12.5 10.5 12.5C10.63 12.5 10.76 12.45 10.85 12.35C10.95 12.26 11 12.13 11 12L11 6Z" />
	<path id="Layer copy" fill-rule="evenodd" class="shp1" d="M14.5 3C14.5 3.13 14.47 3.26 14.42 3.38C14.37 3.5 14.3 3.61 14.21 3.71C14.11 3.8 14 3.87 13.88 3.92C13.76 3.97 13.63 4 13.5 4L13 4L13 13C13 13.26 12.95 13.52 12.85 13.77C12.75 14.01 12.6 14.23 12.41 14.41C12.23 14.6 12.01 14.75 11.77 14.85C11.52 14.95 11.26 15 11 15L5 15C4.74 15 4.48 14.95 4.23 14.85C3.99 14.75 3.77 14.6 3.59 14.41C3.4 14.23 3.25 14.01 3.15 13.77C3.05 13.52 3 13.26 3 13L3 4L2.5 4C2.37 4 2.24 3.97 2.12 3.92C2 3.87 1.89 3.8 1.79 3.71C1.7 3.61 1.63 3.5 1.58 3.38C1.53 3.26 1.5 3.13 1.5 3L1.5 2C1.5 1.87 1.53 1.74 1.58 1.62C1.63 1.5 1.7 1.39 1.79 1.29C1.89 1.2 2 1.13 2.12 1.08C2.24 1.03 2.37 1 2.5 1L6 1C6 0.87 6.03 0.74 6.08 0.62C6.13 0.5 6.2 0.39 6.29 0.29C6.39 0.2 6.5 0.13 6.62 0.08C6.74 0.03 6.87 0 7 0L9 0C9.13 0 9.26 0.03 9.38 0.08C9.5 0.13 9.61 0.2 9.71 0.29C9.8 0.39 9.87 0.5 9.92 0.62C9.97 0.74 10 0.87 10 1L13.5 1C13.63 1 13.76 1.03 13.88 1.08C14 1.13 14.11 1.2 14.21 1.29C14.3 1.39 14.37 1.5 14.42 1.62C14.47 1.74 14.5 1.87 14.5 2L14.5 3ZM4.12 4L4 4.06L4 13C4 13.13 4.03 13.26 4.08 13.38C4.13 13.5 4.2 13.61 4.29 13.71C4.39 13.8 4.5 13.87 4.62 13.92C4.74 13.97 4.87 14 5 14L11 14C11.13 14 11.26 13.97 11.38 13.92C11.5 13.87 11.61 13.8 11.71 13.71C11.8 13.61 11.87 13.5 11.92 13.38C11.97 13.26 12 13.13 12 13L12 4.06L11.88 4L4.12 4ZM13.5 3L13.5 2L2.5 2L2.5 3L13.5 3Z" />
</svg>